<svg width="19" height="18" viewBox="0 0 19 18" fill="none" xmlns="http://www.w3.org/2000/svg">
<path fill-rule="evenodd" clip-rule="evenodd" d="M9.83398 18C14.8045 18 18.834 13.9706 18.834 9C18.834 4.02944 14.8045 0 9.83398 0C4.86342 0 0.833984 4.02944 0.833984 9C0.833984 13.9706 4.86342 18 9.83398 18ZM13.3561 7.53842C13.6535 7.25007 13.6608 6.77525 13.3724 6.47789C13.0841 6.18053 12.6092 6.17322 12.3119 6.46158L8.709 9.95529L7.35609 8.6434C7.05872 8.35505 6.58391 8.36236 6.29556 8.65972C6.0072 8.95709 6.01451 9.43191 6.31188 9.72026L8.1869 11.5384C8.47781 11.8205 8.9402 11.8205 9.23111 11.5384L13.3561 7.53842Z" fill="url(#paint0_linear_1_329)"/>
<defs>
<linearGradient id="paint0_linear_1_329" x1="-2.8717" y1="-5.01167" x2="19.7243" y2="-4.32451" gradientUnits="userSpaceOnUse">
<stop stop-color="#40BEBE"/>
<stop offset="1" stop-color="#2361E6"/>
</linearGradient>
</defs>
</svg>
